<svg width="224" height="66" xmlns="http://www.w3.org/2000/svg" xmlns:xlink="http://www.w3.org/1999/xlink">
  <title>
    Lifeways Group
  </title>
  <defs>
    <path id="a" d="M0 .365h17.08v46.408H0z"/>
    <path id="c" d="M.178.12h14.954v29.076H.178z"/>
    <path id="e" d="M.036.71h29v15h-29z"/>
  </defs>
  <g fill="none" fill-rule="evenodd">
    <path d="M137.508 38.5c-1.997-.498-3.607-.748-4.832-.748-2.903 0-4.355 1.679-4.355 5.036 0 3.13 1.43 4.695 4.287 4.695 1.452 0 3.085-.567 4.9-1.701V38.5zm-14.835-13.473c4.536-1.996 8.506-2.994 11.909-2.994 3.855 0 6.645.817 8.37 2.45 1.633 1.497 2.45 3.879 2.45 7.145v14.086c0 1.134.408 1.701 1.225 1.701.453 0 1.133-.112 2.041-.34l.866 3.247s-2.937 2.47-6.105 2.47c-2.497 0-4.311-.954-5.444-2.86-2.542 1.906-4.923 2.86-7.146 2.86-7.168 0-10.752-3.448-10.752-10.344 0-3.13 1.134-5.557 3.403-7.282 1.95-1.405 4.672-2.11 8.166-2.11 1.723 0 3.674.273 5.852.817v-1.905c0-3.22-1.747-4.832-5.24-4.832-2.585 0-5.218.568-7.894 1.701l-1.7-3.81zM179.766 44.897c3.312 1.589 6.442 2.382 9.39 2.382 3.176 0 4.764-.998 4.764-2.994 0-1.134-.725-2.042-2.177-2.722-.091-.045-.534-.215-1.327-.51a96.771 96.771 0 00-3.504-1.192c-2.45-.86-4.288-1.837-5.512-2.925-1.679-1.542-2.518-3.607-2.518-6.193 0-2.767 1.133-4.944 3.402-6.533 2.132-1.451 4.9-2.177 8.302-2.177 3.493 0 7.032 1.044 10.616 3.13l-1.974 4.22c-3.176-1.316-5.898-1.975-8.165-1.975-3.086 0-4.628.863-4.628 2.587 0 .816.725 1.61 2.178 2.381.09.046.397.17.918.374s1.282.489 2.28.851c1.724.636 3.107 1.169 4.151 1.6 1.043.43 1.746.76 2.11.986 2.358 1.542 3.538 3.834 3.538 6.873 0 3.13-1.135 5.58-3.403 7.35-2.132 1.587-4.877 2.381-8.233 2.381-3.947 0-8.076-1.338-12.385-4.015l2.177-3.879zM114.573 22.629l-6.07 18.661-6.07-18.657.002-.004h-6.97l.001.004-6.07 18.657-6.07-18.661h-6.967l9.547 29.348h6.981L98.95 33.34l6.063 18.636H111.993l9.547-29.348zM52.123 24.645a14.123 14.123 0 011.918-1.796h-10.5v-5.24c0-4.581 1.723-6.873 5.171-6.873 1.361 0 3.515.409 6.465 1.225l1.837-4.219C53.43 5.928 50.118 5.02 47.08 5.02c-7.803 0-11.704 4.287-11.704 12.862v30.534a3.558 3.558 0 003.558 3.558h4.607V28.838h5.961c.665-1.576 1.535-2.98 2.622-4.193" fill="#009EE2"/>
    <g transform="translate(0 6.018)">
      <mask id="b" fill="#fff">
        <use xlink:href="#a"/>
      </mask>
      <path d="M8.302 36.906c0 2.767.997 4.15 2.994 4.15 1.225 0 2.699-.272 4.424-.816l1.36 4.151c-2.813 1.588-5.467 2.382-7.961 2.382-6.08 0-9.12-3.357-9.12-10.072V6.57C0 5.037.847 3.63 2.2 2.914L6.784.487a1.034 1.034 0 011.518.913v35.506z" fill="#009EE2" mask="url(#b)"/>
    </g>
    <path d="M69.78 33.805c0-4.445-1.68-6.668-5.036-6.668-3.312 0-5.218 2.223-5.716 6.668h10.751zm-11.092 5.172c.136 2.677.929 4.741 2.381 6.192 1.134 1.226 2.54 1.838 4.22 1.838 2.45 0 5.511-.749 9.186-2.246l1.905 3.879c-4.265 2.768-8.143 4.15-11.636 4.15-4.627 0-8.19-1.382-10.684-4.15-2.405-2.676-3.607-6.42-3.607-11.228 0-4.763 1.18-8.46 3.539-11.092 2.495-2.858 6.079-4.288 10.752-4.288 8.12 0 12.18 4.515 12.18 13.542v3.403H58.689zM32.65 46.54c-1.303.351-2.454.535-3.436.535-1.997 0-2.994-1.383-2.994-4.151V22.75h-8.302v19.97c0 6.714 3.039 10.071 9.119 10.071 2.22 0 4.569-.633 7.042-1.893l-1.428-4.357z" fill="#009EE2"/>
    <path d="M27.196 14.627a5.08 5.08 0 10-10.16 0 5.08 5.08 0 0010.16 0" fill="#CCD400"/>
    <path d="M168.477 22.629v15.195c0 1.728-.157 3.538-.99 4.796-.761 1.26-2.13 2.203-4.103 2.203-1.752 0-3.117-.865-3.725-1.966-.605-1.025-.681-2.36-.681-3.932V22.629h-7.663v20.013c0 13.613 16.353 6.192 16.353 6.192s-1.107 11.748-8.264 11.748c-2.678 0-4.997-.775-5.24-3.11-.07-.686.02-1.384.363-1.99.327-.578.806-.835.37-1.547-.157-.255-.379-.461-.598-.664-.333-.31-.67-.62-1.068-.841a3.3 3.3 0 00-.739-.294c-3.2-.864-4.987 3.78-4.723 6.294.524 5.028 5.654 7.605 12.06 6.767 14.448-1.89 15.565-15.466 15.798-23.843V22.63h-7.15z" fill="#009EE2"/>
    <g transform="translate(208.286 .29)">
      <mask id="d" fill="#fff">
        <use xlink:href="#c"/>
      </mask>
      <path d="M15.132 1.61a1.49 1.49 0 00-2.55-1.047L.615 12.531c-.28.28-.437.658-.437 1.054v8.134c0 .396.157.775.437 1.055L6.6 28.759a1.492 1.492 0 002.11 0l5.985-5.985c.28-.28.437-.659.437-1.055V1.61z" fill="#CCD400" mask="url(#d)"/>
    </g>
    <g transform="translate(193.964 -.71)">
      <mask id="f" fill="#fff">
        <use xlink:href="#e"/>
      </mask>
      <path d="M27.55.71c.82 0 1.486.67 1.486 1.496 0 .416-.17.791-.443 1.062L16.658 15.273c-.28.28-.658.438-1.052.438H7.493c-.394 0-.773-.158-1.052-.438L.471 9.268a1.501 1.501 0 010-2.115l5.97-6.004C6.721.869 7.1.71 7.493.71H27.55z" fill="#009EE2" mask="url(#f)"/>
    </g>
  </g>
</svg>